<svg xmlns="http://www.w3.org/2000/svg" width="640" height="380" viewBox="0 0 640 380" fill="none">
  <defs>
    <linearGradient id="paint" x1="260" y1="108" x2="342" y2="287" gradientUnits="userSpaceOnUse"><stop stop-color="#3478BA"/><stop offset="1" stop-color="#3478BA"/></linearGradient>
    <linearGradient id="glass" x1="243" y1="100" x2="380" y2="216" gradientUnits="userSpaceOnUse"><stop stop-color="#94A9B8"/><stop offset=".48" stop-color="#3D505D"/><stop offset="1" stop-color="#202B36"/></linearGradient>
    <linearGradient id="shine" x1="304" y1="111" x2="295" y2="274" gradientUnits="userSpaceOnUse"><stop stop-color="white" stop-opacity=".64"/><stop offset=".48" stop-color="white" stop-opacity=".04"/><stop offset="1" stop-color="#111827" stop-opacity=".20"/></linearGradient>
    <linearGradient id="rim" x1="0" y1="0" x2="1" y2="1"><stop stop-color="#F2F5F6"/><stop offset="1" stop-color="#677580"/></linearGradient>
  </defs>
  <ellipse cx="323" cy="296" rx="226" ry="31" fill="#182B29" opacity=".045"/>
  <ellipse cx="328" cy="292" rx="201" ry="22" fill="#182B29" opacity=".07"/>
  <path d="M104 235 119 201 183 172 218 125Q228 114 246 110L348 88Q362 86 376 95L437 141 501 158Q522 165 530 186L539 225 518 255 423 278 169 274Z" fill="url(#paint)"/>
  <path d="M104 235 119 201 183 172 218 125Q228 114 246 110L348 88Q362 86 376 95L437 141 501 158Q522 165 530 186L539 225 518 255 423 278 169 274Z" fill="url(#shine)"/>
  <path d="M115 237 210 264 439 235 534 204 539 225 518 255 423 278 169 274 104 250Z" fill="#3478BA"/>
  <path d="M210 264 439 235 534 204 539 225 518 255 423 278 208 290Z" fill="#101B28" opacity=".19"/>
  <path d="m218 131 117-26 81 51-155 36-62-24Z" fill="url(#glass)" stroke="#28333D" stroke-width="4"/>
  <path d="m234 123 113-25q12-2 23 5l48 35-85 22Z" fill="#3478BA"/>
  <path d="m234 123 113-25q12-2 23 5l48 35-85 22Z" fill="white" opacity=".28"/>
  <path d="m213 140 42 37-52-15Z" fill="white" opacity=".15"/>
  <path d="m345 166 28 47 77-20-34-46Z" fill="url(#glass)" stroke="#27343E" stroke-width="4"/>
  <path d="m377 159 28 44m-73-33-69 20 27 47 73-19Z" stroke="#27343E" stroke-width="5" fill="url(#glass)"/>
  <path d="m184 180 71 25 26 34-96 22-68-27 8-28Z" fill="#3478BA"/>
  <path d="m184 180 71 25 26 34-96 22-68-27 8-28Z" fill="white" opacity=".18"/>
  <path d="m130 206 89 31 49-11m-73-44 59 26" stroke="white" stroke-opacity=".35" stroke-width="2"/>
  <path d="m288 241 79-20 9 40m75-62 11 42m-99-19-71 19 5 34" stroke="#17212E" stroke-opacity=".27" stroke-width="2"/>
  <path d="m328 231 18-5m64-16 16-4" stroke="#EFF4F3" stroke-width="4" stroke-linecap="round"/>
  <path d="m276 201 9-8 22 4-5 10-22 4Z" fill="#3478BA" stroke="#293741" stroke-width="2"/>
  <path d="m494 176 28 6 4 11-29-6Z" fill="#B93D43"/>
  <path d="m117 234 31 9-3 13-30-10Zm95 24 50-12-6 13-43 11Z" fill="#F8FAEF" stroke="#B1BEC1" stroke-width="2"/>
  <path d="m146 255 57 17-2 12-57-17Z" fill="#263440"/>
  <path d="m154 260 37 11m-36-5 35 11" stroke="#637783" stroke-width="2"/>
  <path d="m112 253 17 6m84 22 18-4" stroke="#FFFFFF" stroke-width="3" stroke-linecap="round"/>
  <path d="M232 281c-6-29 4-49 22-53 21-4 38 14 38 41l-2 8Z" fill="#222C35"/>
  <ellipse cx="263" cy="276" rx="26" ry="36" transform="rotate(12 263 276)" fill="#222C35"/>
  <ellipse cx="267" cy="276" rx="17" ry="25" transform="rotate(12 267 276)" fill="url(#rim)" stroke="#52606D" stroke-width="2"/>
  <path d="m268 254-3 15-12-6 9 12-13 11 17-4 2 17 6-17 10 6-8-15 9-12-14 10Z" fill="#344552"/>
  <circle cx="267" cy="277" r="5" fill="#D6DEE3"/>
  <path d="M462 247c-3-27 7-46 23-48 19-2 31 14 30 38l-2 13Z" fill="#222C35"/>
  <ellipse cx="491" cy="244" rx="23" ry="32" transform="rotate(12 491 244)" fill="#222C35"/>
  <ellipse cx="494" cy="243" rx="15" ry="22" transform="rotate(12 494 243)" fill="url(#rim)" stroke="#52606D" stroke-width="2"/>
  <path d="m495 224-3 13-11-5 9 11-12 9 15-3 2 14 5-15 8 6-6-13 8-11-12 8Z" fill="#344552"/>
  <circle cx="494" cy="244" r="4" fill="#D6DEE3"/>
  <path d="m305 270 144-35" stroke="white" stroke-opacity=".3" stroke-width="2"/>
  </svg>
